<svg xmlns="http://www.w3.org/2000/svg" width="110" height="32" fill="none"><path d="M105.615 0H4.387a4.05 4.05 0 0 0-4.05 4.05v23.9A4.05 4.05 0 0 0 4.387 32h101.228a4.05 4.05 0 0 0 4.05-4.05V4.05a4.05 4.05 0 0 0-4.05-4.05z" fill="#525563"/><path fill-rule="evenodd" d="M105.616.64c1.878 0 3.4 1.504 3.4 3.36v24c0 1.856-1.523 3.36-3.4 3.36H4.386c-1.878 0-3.4-1.504-3.4-3.36V4c0-1.856 1.523-3.36 3.4-3.36h101.23zm0-.64H4.386C2.15 0 .337 1.79.337 4v24c0 2.21 1.813 4 4.05 4h101.23c2.236 0 4.05-1.79 4.05-4V4c0-2.21-1.813-4-4.05-4z" fill="#646979"/><g fill="#fff"><path d="M55.52 17.4c-1.9.01-3.432 1.535-3.426 3.41s1.548 3.392 3.447 3.39 3.436-1.524 3.437-3.4a3.33 3.33 0 0 0-.999-2.424c-.652-.64-1.54-.993-2.46-.976zm0 5.464c-.856.06-1.66-.405-2.03-1.17s-.23-1.675.355-2.296 1.493-.825 2.292-.516 1.325 1.07 1.327 1.917c.026.53-.165 1.048-.53 1.437s-.875.615-1.412.627zM47.98 17.4c-1.9.004-3.437 1.53-3.434 3.405S46.09 24.202 48 24.2s3.44-1.523 3.44-3.4a3.33 3.33 0 0 0-.999-2.424c-.652-.64-1.54-.993-2.46-.976h.008zm0 5.464c-.856.063-1.664-.4-2.037-1.163s-.234-1.676.35-2.298 1.493-.828 2.293-.52 1.327 1.07 1.33 1.917c.026.53-.165 1.048-.53 1.437s-.875.615-1.412.627h.008zm-8.98-4.416v1.44h3.5a3 3 0 0 1-.81 1.816C40.98 22.416 40 22.8 39 22.76c-2.147 0-3.887-1.72-3.887-3.84s1.74-3.84 3.887-3.84a3.75 3.75 0 0 1 2.648 1.032l1.03-1.016c-.968-.968-2.29-1.508-3.67-1.496a5.37 5.37 0 0 0-4.809 2.581c-1.003 1.666-1.003 3.74 0 5.406a5.37 5.37 0 0 0 4.809 2.581 4.89 4.89 0 0 0 3.733-1.48c.848-.92 1.3-2.13 1.263-3.376a4.64 4.64 0 0 0-.081-.904l-4.916.04zm36.694 1.12c-.432-1.257-1.605-2.12-2.948-2.168a3.26 3.26 0 0 0-2.365 1.007c-.614.644-.93 1.5-.874 2.393-.02.903.333 1.776.977 2.417a3.39 3.39 0 0 0 2.44.983c1.15.006 2.228-.56 2.867-1.504l-1.174-.8c-.356.587-1 .946-1.693.944a1.75 1.75 0 0 1-1.668-1.032l4.608-1.88-.17-.36zm-4.697 1.136a1.85 1.85 0 0 1 .477-1.365c.338-.373.814-.596 1.32-.62a1.34 1.34 0 0 1 1.279.72l-3.077 1.264zM67.254 24h1.514V14h-1.514v10zm-2.478-5.84h-.057c-.462-.5-1.122-.8-1.814-.8-1.838.088-3.283 1.586-3.283 3.404s1.445 3.316 3.283 3.404a2.36 2.36 0 0 0 1.814-.8h.05v.488c0 1.304-.705 2-1.838 2-.772-.018-1.457-.495-1.733-1.208l-1.32.544a3.28 3.28 0 0 0 3.053 2.008c1.774 0 3.24-1.032 3.24-3.544V17.6h-1.393v.56zm-1.733 4.704c-1.083-.094-1.913-1-1.913-2.064s.83-1.97 1.913-2.064c.523.026 1.013.26 1.36.65s.52.9.48 1.415a1.89 1.89 0 0 1-.476 1.422c-.35.4-.844.622-1.37.642h.008zM82.786 14h-3.62v10h1.514v-3.792h2.114a3.16 3.16 0 0 0 2.915-1.484 3.08 3.08 0 0 0 0-3.24A3.16 3.16 0 0 0 82.794 14h-.008zm0 4.8h-2.114v-3.408h2.146c.96 0 1.737.768 1.737 1.716s-.778 1.716-1.737 1.716l-.032-.024zm9.337-1.44a2.84 2.84 0 0 0-2.697 1.528l1.344.552c.27-.493.81-.782 1.377-.736a1.47 1.47 0 0 1 1.083.309c.305.242.498.595.537.98v.104a3.38 3.38 0 0 0-1.579-.384c-1.45 0-2.915.8-2.915 2.248a2.3 2.3 0 0 0 .785 1.624 2.36 2.36 0 0 0 1.726.576 2.14 2.14 0 0 0 1.944-.96h.05v.8h1.458v-3.848c0-1.752-1.344-2.768-3.07-2.768l-.04-.024zm-.186 5.48c-.494 0-1.182-.248-1.182-.848 0-.8.858-1.064 1.62-1.064.48-.012.956.104 1.377.336-.105.896-.86 1.578-1.773 1.6l-.04-.024zm8.61-5.24l-1.733 4.336h-.05L96.966 17.6h-1.62l2.697 6.064-1.54 3.368h1.58l4.146-9.432h-1.684zM86.933 24h1.514V14h-1.514v10z"/><path d="M38.74 8.192c.028.593-.192 1.17-.607 1.6a2.37 2.37 0 0 1-1.782.712 2.55 2.55 0 0 1-2.339-1.561c-.39-.938-.174-2.016.55-2.735.47-.474 1.118-.735 1.8-.72.342-.001.68.067.996.2a2 2 0 0 1 .761.536l-.43.424a1.63 1.63 0 0 0-1.328-.568 1.89 1.89 0 0 0-1.357.563c-.356.362-.547.852-.53 1.357-.01.763.444 1.457 1.152 1.76a1.93 1.93 0 0 0 2.087-.375 1.5 1.5 0 0 0 .405-.976H36.35v-.576h2.357c.022.12.032.24.032.36zm3.71-2h-2.187v1.52h1.992v.576h-1.992v1.52h2.187v.592h-2.834V5.6h2.834v.592zm2.656 4.208h-.624V6.192h-1.36V5.6h3.377v.592h-1.393V10.4zm3.774 0V5.6h.624v4.8h-.624zm3.393 0h-.624V6.192h-1.36V5.6h3.337v.592h-1.352V10.4zm7.677-.624a2.55 2.55 0 0 1-3.563 0 2.57 2.57 0 0 1 0-3.56c.47-.47 1.113-.733 1.782-.733s1.3.264 1.782.733a2.56 2.56 0 0 1 0 3.56zm-3.102-.4a1.89 1.89 0 0 0 2.64 0 2.03 2.03 0 0 0 0-2.752 1.89 1.89 0 0 0-2.64 0 2.03 2.03 0 0 0 0 2.752zm4.697 1.024V5.6h.76l2.365 3.736V5.6h.624v4.8h-.648l-2.47-3.912V10.4h-.632z" stroke="#fff" stroke-width=".667"/></g><path d="M8.792 6.032c-.264.313-.397.713-.373 1.12v17.696c-.025.407.11.807.373 1.12l.057.056 10.034-9.904v-.232L8.848 5.976l-.057.056z" fill="url(#A)"/><path d="M22.202 19.424l-3.32-3.304v-.232l3.32-3.312.073.04 3.976 2.232c1.134.632 1.134 1.672 0 2.312l-3.96 2.224-.09.04z" fill="url(#B)"/><path d="M22.3 19.376L18.882 16l-10.09 9.968c.477.414 1.184.434 1.684.048l11.832-6.64" fill="url(#C)"/><path d="M22.3 12.624l-11.832-6.64c-.5-.386-1.208-.366-1.684.048L18.882 16l3.418-3.376z" fill="url(#D)"/><g fill="#000"><path opacity=".2" d="M22.202 19.304l-11.734 6.6c-.48.355-1.14.355-1.62 0l-.057.056.057.056a1.36 1.36 0 0 0 1.62 0l11.832-6.64-.097-.072z"/><path opacity=".12" d="M8.792 25.856c-.264-.313-.397-.713-.373-1.12v.12c-.025.407.11.807.373 1.12l.057-.056-.057-.064zm17.46-8.816l-4.05 2.264.073.072 3.976-2.224a1.4 1.4 0 0 0 .81-1.152 1.49 1.49 0 0 1-.81 1.04z"/></g><path opacity=".25" d="M10.468 6.096l15.784 8.864a1.49 1.49 0 0 1 .81 1.04 1.4 1.4 0 0 0-.81-1.152L10.468 5.984C9.334 5.352 8.41 5.88 8.41 7.16v.12c.024-1.288.93-1.816 2.057-1.184z" fill="#fff"/><defs><linearGradient id="A" x1="14.833" y1="6.968" x2="6.247" y2="15.45" gradientUnits="userSpaceOnUse"><stop stop-color="#00a0ff"/><stop offset=".01" stop-color="#00a1ff"/><stop offset=".26" stop-color="#00beff"/><stop offset=".51" stop-color="#00d2ff"/><stop offset=".76" stop-color="#00dfff"/><stop offset="1" stop-color="#00e3ff"/></linearGradient><linearGradient id="B" x1="27.734" y1="16" x2="8.144" y2="16" gradientUnits="userSpaceOnUse"><stop stop-color="#ffe000"/><stop offset=".41" stop-color="#ffbd00"/><stop offset=".78" stop-color="orange"/><stop offset="1" stop-color="#ff9c00"/></linearGradient><linearGradient id="C" x1="20.445" y1="19.229" x2="5.836" y2="33.654" gradientUnits="userSpaceOnUse"><stop stop-color="#ff3a44"/><stop offset="1" stop-color="#c31162"/></linearGradient><linearGradient id="D" x1="6.249" y1="4.643" x2="12.769" y2="11.085" gradientUnits="userSpaceOnUse"><stop stop-color="#32a071"/><stop offset=".07" stop-color="#2da771"/><stop offset=".48" stop-color="#15cf74"/><stop offset=".8" stop-color="#06e775"/><stop offset="1" stop-color="#00f076"/></linearGradient></defs></svg>