<svg xmlns="http://www.w3.org/2000/svg" width="98" height="32" fill="none"><g fill-rule="evenodd"><path d="M89.293 0L6.843.002l-.745.01C5.553.018 5 .065 4.473.153s-1.056.26-1.54.502-.927.563-1.312.943a5.01 5.01 0 0 0-.955 1.297 5.23 5.23 0 0 0-.507 1.523 10.26 10.26 0 0 0-.145 1.602L0 6.755v18.49l.012.738a10.26 10.26 0 0 0 .145 1.601 5.22 5.22 0 0 0 .507 1.523 4.97 4.97 0 0 0 .955 1.291c.383.382.827.7 1.312.943s1.005.414 1.54.505 1.08.134 1.625.14l.745.01.888.002h83.19c.543-.007 1.085-.054 1.62-.14s1.06-.262 1.547-.505a5.09 5.09 0 0 0 1.311-.943 5.12 5.12 0 0 0 .958-1.291c.245-.48.414-.993.502-1.523a10.67 10.67 0 0 0 .151-1.601l.003-.738.006-.875L97 6.02c-.01-.537-.06-1.072-.15-1.602s-.257-1.043-.502-1.523a5.21 5.21 0 0 0-2.269-2.24 5.54 5.54 0 0 0-1.547-.502c-.536-.088-1.078-.135-1.62-.14l-.748-.01-.88-.002z" fill="#646979"/><path d="M6.847 31.3a32.45 32.45 0 0 1-.733-.009 10.41 10.41 0 0 1-1.515-.13c-.467-.08-.92-.227-1.343-.438a4.38 4.38 0 0 1-1.133-.813c-.336-.325-.615-.703-.827-1.117s-.363-.864-.44-1.326c-.083-.496-.13-.997-.135-1.5l-.012-.73V6.755L.72 6.04a9.77 9.77 0 0 1 .134-1.498 4.56 4.56 0 0 1 .441-1.33 4.3 4.3 0 0 1 .823-1.118 4.51 4.51 0 0 1 1.137-.818c.422-.2.874-.357 1.34-.435A10.34 10.34 0 0 1 6.116.71L6.847.7h84.06c.505.006 1.008.05 1.507.13a4.86 4.86 0 0 1 1.355.438c.84.428 1.526 1.105 1.958 1.936a4.57 4.57 0 0 1 .434 1.319c.084.5.13 1.004.14 1.5l.002.712.006.873-.01 18.347c-.01.497-.056.993-.14 1.483a4.55 4.55 0 0 1-.438 1.336c-.214.4-.492.784-.823 1.11-.33.33-.714.607-1.135.818-.426.213-.882.36-1.352.44a10.3 10.3 0 0 1-1.516.13l-.728.01-.88.002L6.847 31.3z" fill="#525563"/></g><path d="M34.297 21.712H30.46l-.922 2.685h-1.625l3.635-9.934h1.7l3.635 9.934H35.22l-.92-2.685zm-3.44-1.24H33.9l-1.5-4.358h-.042l-1.5 4.358zm13.865.303c0 2.25-1.22 3.697-3.063 3.697a2.47 2.47 0 0 1-2.3-1.267h-.035v3.587h-1.507v-9.64h1.46v1.205h.028a2.61 2.61 0 0 1 2.337-1.28c1.863 0 3.1 1.453 3.1 3.698zm-1.55 0c0-1.466-.768-2.43-1.94-2.43-1.15 0-1.926.984-1.926 2.43 0 1.46.774 2.437 1.926 2.437 1.172 0 1.94-.957 1.94-2.437zm9.628 0c0 2.25-1.22 3.697-3.063 3.697-.952.05-1.85-.443-2.3-1.267h-.035v3.587h-1.507v-9.64h1.458v1.205h.028a2.61 2.61 0 0 1 2.337-1.28c1.863 0 3.1 1.453 3.1 3.698zm-1.55 0c0-1.466-.768-2.43-1.94-2.43-1.15 0-1.926.984-1.926 2.43 0 1.46.774 2.437 1.926 2.437 1.172 0 1.94-.957 1.94-2.437zm6.888.853c.112.985 1.082 1.632 2.407 1.632 1.27 0 2.184-.647 2.184-1.535 0-.77-.55-1.233-1.856-1.55l-1.305-.3c-1.85-.44-2.707-1.294-2.707-2.678 0-1.714 1.514-2.9 3.663-2.9 2.127 0 3.586 1.177 3.635 2.9h-1.52c-.1-1-.922-1.6-2.135-1.6s-2.044.606-2.044 1.487c0 .702.53 1.116 1.828 1.432l1.1.27c2.066.482 2.924 1.3 2.924 2.754 0 1.858-1.5 3.023-3.887 3.023-2.233 0-3.74-1.137-3.838-2.934h1.542zm9.434-6.2v1.714h1.396v1.177h-1.396v3.993c0 .62.28.9.893.9a4.8 4.8 0 0 0 .496-.034v1.17c-.276.05-.556.074-.837.07-1.486 0-2.066-.55-2.066-1.955V18.33H64.99v-1.177h1.067V15.44h1.514zm2.204 5.336c0-2.28 1.36-3.7 3.48-3.7 2.128 0 3.482 1.432 3.482 3.7 0 2.285-1.347 3.7-3.482 3.7s-3.48-1.426-3.48-3.7zm5.428 0c0-1.563-.726-2.486-1.947-2.486s-1.946.93-1.946 2.486c0 1.57.725 2.485 1.946 2.485s1.947-.916 1.947-2.485zm2.777-3.622h1.437v1.233h.035a1.75 1.75 0 0 1 1.766-1.31 2.35 2.35 0 0 1 .516.056v1.4c-.22-.066-.448-.096-.677-.1a1.53 1.53 0 0 0-1.174.477c-.302.32-.447.755-.397 1.2v4.296H77.98V17.14zm10.7 5.116c-.203 1.315-1.5 2.217-3.16 2.217-2.135 0-3.46-1.412-3.46-3.677 0-2.272 1.332-3.745 3.397-3.745 2.03 0 3.308 1.377 3.308 3.573v.5h-5.184v.1a1.87 1.87 0 0 0 .518 1.466c.378.392.908.606 1.456.586.73.068 1.42-.347 1.695-1.02h1.43zm-5.093-2.162h3.67a1.73 1.73 0 0 0-.493-1.307c-.342-.35-.816-.54-1.307-.53a1.87 1.87 0 0 0-1.323.535 1.82 1.82 0 0 0-.547 1.303zm-52.92-13.12c.64-.045 1.266.195 1.707.654a2.11 2.11 0 0 1 .57 1.718c0 1.525-.835 2.402-2.276 2.402h-1.75V6.985h1.747zm-.996 4.098h.912a1.53 1.53 0 0 0 1.212-.484c.3-.333.45-.786.384-1.233a1.49 1.49 0 0 0-.39-1.225c-.3-.33-.75-.507-1.206-.482h-.912v3.424zm4.12-1.128a1.7 1.7 0 0 1 .81-1.613 1.75 1.75 0 0 1 1.824 0 1.7 1.7 0 0 1 .81 1.613 1.7 1.7 0 0 1-.809 1.615 1.75 1.75 0 0 1-1.826 0 1.7 1.7 0 0 1-.809-1.615zm2.702 0c0-.78-.355-1.238-.98-1.238s-.98.457-.98 1.238c0 .787.352 1.24.98 1.24s.98-.456.98-1.24zm5.318 1.803h-.748l-.755-2.653h-.057l-.75 2.653h-.74l-1.006-3.602h.73l.654 2.75h.054l.75-2.75h.7l.75 2.75h.057l.65-2.75h.72l-1.002 3.602zm1.85-3.602h.694v.572h.054c.187-.42.625-.68 1.1-.642.36-.027.712.1.958.37a1.16 1.16 0 0 1 .305.97v2.332h-.72V9.605c0-.58-.255-.867-.788-.867a.85.85 0 0 0-.65.26.82.82 0 0 0-.223.654v2.107h-.72V8.156zm4.25-1.406h.72v5h-.72v-5zm1.722 3.206a1.7 1.7 0 0 1 .81-1.613 1.75 1.75 0 0 1 1.824 0 1.7 1.7 0 0 1 .81 1.613 1.7 1.7 0 0 1-.809 1.615 1.75 1.75 0 0 1-1.826 0 1.7 1.7 0 0 1-.809-1.615zm2.702 0c0-.78-.356-1.238-.98-1.238s-.98.457-.98 1.238c0 .787.352 1.24.98 1.24s.98-.456.98-1.24zm1.5.784c0-.648.5-1.022 1.358-1.075l1-.056v-.3c0-.38-.255-.595-.747-.595-.402 0-.68.146-.76.4h-.698c.074-.62.663-1.016 1.492-1.016.915 0 1.43.45 1.43 1.2v2.46h-.694v-.506h-.057c-.236.37-.654.586-1.097.566a1.11 1.11 0 0 1-.851-.273 1.08 1.08 0 0 1-.366-.806zm2.347-.308v-.3l-.892.056c-.503.033-.73.202-.73.52 0 .324.285.513.677.513a.87.87 0 0 0 .642-.196.84.84 0 0 0 .303-.59zm1.664-.476c0-1.138.593-1.86 1.515-1.86a1.21 1.21 0 0 1 1.12.632h.054V6.75h.72v5h-.7v-.57H60.5a1.27 1.27 0 0 1-1.146.629c-.93 0-1.515-.72-1.515-1.862zm.744 0c0 .764.365 1.224.975 1.224s.983-.466.983-1.22-.38-1.224-.983-1.224-.975.463-.975 1.22zm5.646 0a1.7 1.7 0 0 1 .81-1.613 1.75 1.75 0 0 1 1.824 0 1.7 1.7 0 0 1 .81 1.613 1.7 1.7 0 0 1-.809 1.615 1.75 1.75 0 0 1-1.826 0 1.7 1.7 0 0 1-.809-1.615zm2.702 0c0-.78-.355-1.238-.98-1.238s-.98.457-.98 1.238c0 .787.352 1.24.98 1.24s.98-.456.98-1.24zm1.708-1.8h.694v.572h.054a1.1 1.1 0 0 1 1.1-.642c.36-.027.712.1.958.37a1.16 1.16 0 0 1 .305.97v2.332h-.72V9.605c0-.58-.255-.867-.788-.867-.244-.01-.48.083-.648.26a.82.82 0 0 0-.223.654v2.107h-.72V8.156zm7.172-.897v.913h.8v.6h-.8v1.852c0 .377.157.543.516.543a2.52 2.52 0 0 0 .275-.016v.592a2.34 2.34 0 0 1-.392.036c-.8 0-1.12-.278-1.12-.973V8.77h-.58v-.6h.58v-.9h.72zm1.775-.5h.714v1.985h.057c.196-.425.64-.683 1.113-.645a1.21 1.21 0 0 1 .949.38c.243.26.356.613.3.963v2.326h-.72v-2.15c0-.575-.272-.867-.78-.867a.86.86 0 0 0-.675.246c-.177.176-.267.42-.244.668v2.104h-.72V6.75zm7.343 4.036a1.48 1.48 0 0 1-1.582 1.042 1.67 1.67 0 0 1-1.279-.544 1.62 1.62 0 0 1-.407-1.315 1.65 1.65 0 0 1 .406-1.32 1.7 1.7 0 0 1 1.277-.562c1.016 0 1.63.685 1.63 1.816v.248h-2.578v.04c-.023.267.07.532.255.728a.97.97 0 0 0 .717.304.88.88 0 0 0 .869-.437h.694zm-2.535-1.16h1.844a.87.87 0 0 0-.24-.663c-.17-.178-.4-.276-.66-.27a.94.94 0 0 0-.672.27c-.178.176-.276.415-.273.663zm-62.32 6.615c.018-1.357.74-2.6 1.9-3.322-.743-1.046-1.942-1.686-3.236-1.726-1.36-.14-2.68.804-3.375.804-.707 0-1.775-.8-2.926-.767-1.514.048-2.9.877-3.627 2.182-1.568 2.68-.398 6.616 1.104 8.78.75 1.06 1.63 2.245 2.78 2.203 1.125-.046 1.545-.708 2.902-.708 1.345 0 1.74.708 2.9.68 1.207-.02 1.967-1.065 2.692-2.135a8.82 8.82 0 0 0 1.23-2.474c-1.433-.598-2.365-1.984-2.367-3.52zm-2.215-6.47c.658-.78.982-1.78.904-2.792a4.03 4.03 0 0 0-2.6 1.328 3.68 3.68 0 0 0-.927 2.689 3.34 3.34 0 0 0 2.624-1.224z" fill="#fff"/></svg>