<svg xmlns="http://www.w3.org/2000/svg" viewBox="0 0 200 53.8" width="266.667" height="71.733"><defs><clipPath id="A"><path d="M0 0h200v53.8H0z"/></clipPath></defs><g clip-path="url(#A)"><path d="M74.917 37.058h-4.96v-1.22h11.278v1.22h-4.944V49.65h-1.36V37.058h-.015zm-14.97 3.956h-1.298v-1.128h1.313v-2.843h1.314v2.843h2.472v1.128h-2.472v4.913c0 .386.03.726.108 1.004s.17.5.293.71a2.06 2.06 0 0 0 .417.463 1.93 1.93 0 0 0 .479.278c.17.062.325.108.48.124l.433.03h.185c.062 0 .11-.016.14-.016.047 0 .093-.015.124-.015v1.205c-.046 0-.093.015-.154.015-.047 0-.11.016-.186.016h-.247c-.185 0-.402-.016-.65-.047s-.494-.092-.742-.17c-.247-.092-.494-.216-.74-.386a2.58 2.58 0 0 1-.649-.649c-.185-.278-.34-.602-.464-1.004s-.17-.865-.17-1.42v-5.052h.016zM77.28 12.477h-4.033V5.494h4.033c2.982 0 4.62 1.205 4.62 3.476s-1.73 3.507-4.62 3.507zM114.237.488H91.68v5.006h12.9l-13.998 22.28h23.36v-5.006H100.24L114.237.488zM12.205 11.628C7.725 10.562 6.15 9.835 6.15 7.78c0-1.715 1.59-2.812 3.955-2.812 3.616 0 6.845 2.487 7.725 3.23L20.147 3.5C17.273 1.2 13.967.025 10.182.025 4.59.025.68 3.377.68 8.15c0 5.223 3.368 7.015 9.177 8.42 4.867 1.128 5.717 2.085 5.717 3.692 0 1.9-1.7 3.044-4.342 3.044-3.26 0-5.917-1.236-8.96-4.094L0 24.096c3.167 2.72 7.03 4.14 11.124 4.14 6.025 0 9.92-3.244 9.92-8.435 0-4.264-2.565-6.66-8.838-8.173zm115.288 3.244c3.97 0 6.613-2.38 6.613-6.458s-2.642-6.38-6.613-6.38h-7.2v12.84h7.2zm-78.285 3.646l3.368-6.69 3.368 6.69h-6.736zm119.8-16.098s-.587 2.1-1.004 3.275l-4.17 11.047h10.382L170.09 5.695c-.433-1.174-1.004-3.275-1.004-3.275h-.078zM43.708.488H21.985v5.006h8.08v22.28h5.546V5.494h8.096V.488zm145.307 15.404L179.76.488h1.9l6.458 10.738c.772 1.33 1.67 3.075 1.67 3.075h.077s.85-1.746 1.668-3.075l6.46-10.738h1.9l-9.224 15.404v11.835H189V15.892h.015zM4.898 48.43c.417 0 .788-.062 1.127-.186s.618-.31.85-.54a2.42 2.42 0 0 0 .541-.849c.124-.325.185-.696.185-1.113 0-.4-.06-.788-.2-1.112-.14-.34-.325-.618-.557-.865-.247-.248-.525-.417-.865-.557-.34-.123-.695-.185-1.097-.185H1.36v5.423h3.538v-.015zm-.17-6.598c.355 0 .664-.06.958-.17.293-.123.54-.278.74-.494s.356-.463.48-.757c.108-.294.17-.618.17-.99 0-.355-.062-.68-.17-.958a2.03 2.03 0 0 0-.463-.741c-.2-.2-.448-.37-.742-.48s-.618-.17-.99-.17H1.36v4.774h3.368v-.016zM141.66.473h1.668V26.15h12.994v1.56h-14.678V.473h.016zM18.864 35.838h1.39v1.668h-1.39v-1.668zm-6.952 3.94h1.313v2.054c0 .093-.015.186-.015.248 0 .077-.016.154-.016.23h.03a4.17 4.17 0 0 1 .464-1.035c.2-.324.432-.602.695-.834a3.12 3.12 0 0 1 .896-.556c.324-.14.695-.2 1.082-.2a.83.83 0 0 1 .2.015c.062 0 .124.016.17.016.062.015.108.015.17.03v1.313c-.046 0-.092-.016-.14-.016s-.092-.015-.154-.015h-.186c-.355 0-.68.062-.973.2a2.77 2.77 0 0 0-.819.541c-.247.23-.463.494-.633.803-.186.31-.325.65-.433 1.004-.108.325-.17.634-.216.958s-.062.65-.062.958v4.156h-1.375v-9.872zm7 0h1.328v9.872H18.91v-9.872zm9.3-3.94h1.328v11.186c0 .324.03.587.11.788.06.2.154.34.262.448a.68.68 0 0 0 .356.2c.123.03.262.047.386.047h.123c.03 0 .078 0 .11-.016.03 0 .06 0 .092-.015v1.205c-.046 0-.092.015-.14.015s-.093.016-.154.016h-.186c-.2 0-.432-.03-.695-.077a1.77 1.77 0 0 1-.742-.325c-.23-.17-.432-.402-.587-.726s-.247-.757-.247-1.298V35.838h-.015zm4.913 0h1.4v1.668h-1.4v-1.668zm-9.765 0h1.33v11.186c0 .324.03.587.108.788a1.06 1.06 0 0 0 .263.448.68.68 0 0 0 .355.2 1.65 1.65 0 0 0 .386.047h.124c.03 0 .077 0 .108-.016.03 0 .062 0 .093-.015v1.205c-.046 0-.093.015-.14.015s-.093.016-.155.016h-.185c-.2 0-.433-.03-.695-.077a1.77 1.77 0 0 1-.742-.325c-.232-.17-.432-.402-.587-.726s-.247-.757-.247-1.298V35.838h-.016zm14.925 11.047a1.72 1.72 0 0 0 .139.679c.093.217.232.417.417.603.186.17.417.324.68.432.278.11.603.17.973.17.464 0 .88-.108 1.267-.34.37-.217.696-.5.958-.866s.464-.74.603-1.174.2-.865.2-1.298v-.432h-.572c-.263 0-.556 0-.88.015s-.664.03-1.004.077-.68.11-1.02.2a2.87 2.87 0 0 0-.88.387 1.95 1.95 0 0 0-.618.618c-.186.247-.263.556-.263.927zm-5.13-7.107h1.328v9.872h-1.328v-9.872zm14.77 0h1.313v1.776c0 .093-.015.186-.015.248 0 .077-.016.154-.016.23h.03c.093-.216.232-.48.433-.772s.463-.556.788-.82.7-.48 1.158-.65.974-.263 1.56-.263c.602 0 1.128.093 1.545.263s.757.417 1.02.742.448.726.556 1.205a7.37 7.37 0 0 1 .17 1.622v6.288h-1.33v-5.933c0-.386-.015-.757-.062-1.112s-.14-.664-.293-.943c-.155-.262-.37-.478-.65-.648-.278-.155-.665-.248-1.144-.248a3.53 3.53 0 0 0-1.205.201 3.85 3.85 0 0 0-1.05.572 4.05 4.05 0 0 0-.819.881 3.54 3.54 0 0 0-.51 1.127 2.87 2.87 0 0 0-.124.649c-.015.232-.03.448-.03.696v4.743h-1.33v-9.857zm33.835-3.94h1.453l3.83 10.5c.062.186.124.37.186.587l.17.588c.06.216.123.417.17.618h.03a9.95 9.95 0 0 1 .17-.618c.047-.186.108-.37.17-.588l.186-.587 3.83-10.5h1.453L88.297 49.65h-1.422L81.76 35.838zm13.01 12.236h1.56v1.576h-1.56v-1.576zm10.49-12.236h7.77v1.22h-6.427v5.037h5.237V43.3h-5.237v5.13h6.782v1.22h-8.126V35.838zm9.332 3.94h1.405l2.75 7.246a3.75 3.75 0 0 1 .123.386c.03.14.077.262.108.37a3.97 3.97 0 0 0 .108.401h.03c.03-.123.062-.262.11-.386.03-.108.06-.247.108-.386l.14-.402 2.72-7.246h1.406l-3.785 9.873h-1.453l-3.77-9.857zm17.83 3.893a3.85 3.85 0 0 0-.263-1.344c-.154-.37-.355-.695-.618-.943a2.52 2.52 0 0 0-.881-.556c-.324-.123-.68-.185-1.05-.185a3.44 3.44 0 0 0-1.19.201c-.37.123-.7.324-1.004.57a3.61 3.61 0 0 0-.773.943c-.216.37-.355.82-.432 1.298h6.21v.015zm3.91-3.893h1.313v2.054c0 .093-.016.186-.016.248 0 .077-.015.154-.015.23h.03c.108-.37.263-.7.463-1.035a3.71 3.71 0 0 1 .696-.834c.262-.232.556-.417.896-.556.324-.14.695-.2 1.08-.2.077 0 .14 0 .2.015.062 0 .124.016.17.016.062.015.108.015.17.03v1.313c-.046 0-.093-.016-.14-.016s-.093-.015-.155-.015h-.185a2.24 2.24 0 0 0-.973.201 2.77 2.77 0 0 0-.819.541c-.247.23-.464.494-.634.803-.185.31-.324.65-.432 1.004-.108.325-.17.634-.217.958a6.85 6.85 0 0 0-.061.958v4.156h-1.33v-9.872h-.046zm6.04 12.344c.108.077.23.155.355.232a2.02 2.02 0 0 0 .371.154c.14.047.293.062.448.062.216 0 .417-.046.602-.123a1.84 1.84 0 0 0 .51-.34 2.27 2.27 0 0 0 .417-.51c.124-.2.248-.402.34-.634l.618-1.4-4.125-9.795h1.483l2.905 7.2.14.37c.046.124.077.232.108.34s.077.232.108.34h.03l.093-.34c.03-.108.062-.216.108-.34.03-.124.077-.247.14-.37l2.843-7.2h1.452L146.45 51.72c-.262.634-.633 1.128-1.127 1.5s-1.067.556-1.715.556c-.263 0-.495-.03-.71-.092s-.386-.124-.54-.2a2.13 2.13 0 0 1-.479-.294l.495-1.066zm16.407-11.108h-1.297v-1.128h1.313v-2.843h1.313v2.843h2.472v1.128h-2.472v4.913c0 .386.03.726.108 1.004a2.75 2.75 0 0 0 .294.711c.123.185.262.34.417.463s.324.216.48.278c.17.062.324.108.48.124s.293.03.432.03h.186c.062 0 .108-.016.14-.016.046 0 .093-.015.124-.015v1.205c-.047 0-.093.015-.155.015-.046 0-.108.016-.185.016h-.248a5.3 5.3 0 0 1-.648-.047c-.248-.03-.495-.092-.742-.17a3.4 3.4 0 0 1-.742-.386 2.6 2.6 0 0 1-.649-.649c-.185-.278-.34-.602-.463-1.004s-.17-.865-.17-1.42v-5.052h.015zm6.165-5.176h1.4v1.668h-1.4v-1.668zm.046 3.94h1.33v9.872H165v-9.872zm4.558 0h1.313v1.776c0 .093-.015.186-.015.248 0 .077-.016.154-.016.23h.03c.108-.34.294-.65.54-.942s.525-.572.85-.804.664-.417 1.05-.54c.37-.14.757-.2 1.144-.2.91 0 1.622.2 2.1.618.494.417.803 1.035.958 1.854h.03a3.88 3.88 0 0 1 .556-.943c.247-.293.525-.556.834-.788.31-.216.665-.4 1.05-.54s.772-.2 1.19-.2c.603 0 1.113.093 1.53.262s.757.418 1.004.742c.263.325.448.726.572 1.205s.17 1.02.17 1.622v6.29h-1.33v-5.95a8.93 8.93 0 0 0-.077-1.143c-.062-.355-.155-.664-.31-.942a1.71 1.71 0 0 0-.649-.634c-.278-.154-.65-.232-1.097-.232a2.62 2.62 0 0 0-1.081.232c-.34.155-.65.355-.912.618-.278.263-.5.556-.695.896-.2.34-.34.68-.433 1.05a2.56 2.56 0 0 0-.139.68c-.015.23-.03.494-.03.757v4.666h-1.328v-5.95a8.36 8.36 0 0 0-.062-1.081c-.047-.356-.14-.665-.278-.943s-.356-.494-.634-.664-.65-.247-1.112-.247c-.402 0-.773.077-1.128.247a3.67 3.67 0 0 0-.943.649c-.278.263-.51.572-.7.927s-.356.71-.448 1.08c-.047.2-.093.418-.108.65a9.27 9.27 0 0 0-.031.68v4.666h-1.33v-9.903h-.03zm24.936 3.893a3.85 3.85 0 0 0-.262-1.344c-.155-.386-.356-.695-.618-.943a2.52 2.52 0 0 0-.881-.556 2.96 2.96 0 0 0-1.051-.185c-.417 0-.803.062-1.19.2-.37.123-.71.324-1.004.57a3.59 3.59 0 0 0-.773.943c-.216.37-.355.82-.433 1.298h6.21v.015zM118.625.473h8.945c4.744 0 8.282 2.997 8.282 7.94s-3.538 8.02-8.282 8.02h-7.276V27.71h-1.67V.473zM36.9 46.962c0-.556.108-1.02.324-1.406a2.87 2.87 0 0 1 .866-.958c.355-.263.757-.448 1.19-.587a8.46 8.46 0 0 1 1.344-.309 9.84 9.84 0 0 1 1.283-.124c.417-.015.757-.015 1.035-.015h.54V43.3c0-.48-.062-.865-.186-1.205-.123-.324-.293-.587-.5-.788s-.48-.34-.788-.432c-.293-.093-.633-.124-.973-.124-.402 0-.788.046-1.128.154-.34.093-.633.217-.88.325-.294.14-.557.293-.788.463l-.618-1.02c.262-.2.57-.387.927-.557.31-.14.68-.262 1.097-.386.432-.123.927-.17 1.483-.17 1.19 0 2.116.325 2.75.958.633.65.942 1.592.942 2.828v6.32h-1.282v-1.422c0-.108.015-.185.015-.263s.016-.154.016-.23h-.03a3.6 3.6 0 0 1-.726 1.081 2.77 2.77 0 0 1-.448.386 2.9 2.9 0 0 1-.572.34c-.216.11-.448.186-.71.248s-.54.092-.85.092c-.417 0-.82-.062-1.22-.185a3.74 3.74 0 0 1-1.081-.541c-.325-.232-.572-.54-.773-.91-.154-.387-.247-.804-.247-1.298zM87.493 8.83c0-2.394-.865-4.465-2.518-5.963-1.7-1.56-4.125-2.38-6.983-2.38H67.717v27.285h5.53v-9.95h3.956l5.73 9.95H89.3l-6.49-11.294c4.08-1.9 4.68-5.624 4.68-7.648zm37.296 35.89c0-.82.124-1.545.387-2.18s.602-1.2 1.05-1.638a4.48 4.48 0 0 1 1.545-1.019 5.11 5.11 0 0 1 1.885-.356c.68 0 1.283.124 1.792.37s.943.572 1.283.99.602.896.772 1.452a5.89 5.89 0 0 1 .263 1.746v.216c0 .078-.016.155-.016.217 0 .077-.015.17-.015.262h-7.57c.015.634.123 1.2.34 1.684.217.48.495.896.835 1.22.34.34.74.587 1.205.757s.942.247 1.452.247c.448 0 .865-.062 1.22-.185a6.25 6.25 0 0 0 .942-.402 3.65 3.65 0 0 0 .819-.602l.618 1.02c-.294.263-.633.48-1.004.695-.325.17-.71.325-1.144.48a5.01 5.01 0 0 1-1.498.217c-.742 0-1.422-.124-2.055-.387-.634-.247-1.174-.602-1.638-1.066s-.82-1.004-1.08-1.637c-.263-.65-.387-1.344-.387-2.1zm-86.04-16.95h5.793l2.132-4.25h11.804l2.148 4.264h5.793L52.576.365 38.75 27.773zm136.068-9.47H163.26l-3.507 9.425h-1.792L168.158.488h1.792l10.197 27.24h-1.792l-3.538-9.425zm12.02 26.42c0-.82.123-1.545.386-2.18s.602-1.2 1.05-1.638a4.49 4.49 0 0 1 1.545-1.019 5.11 5.11 0 0 1 1.885-.356c.68 0 1.283.124 1.793.37s.942.572 1.282.99.602.896.772 1.452a5.89 5.89 0 0 1 .263 1.746v.216c0 .078-.015.155-.015.217 0 .077-.016.17-.016.262h-7.57c.015.634.123 1.2.34 1.684.216.48.494.896.834 1.22.34.34.74.587 1.205.757s.942.247 1.452.247c.448 0 .865-.062 1.22-.185a6.16 6.16 0 0 0 .942-.402 3.65 3.65 0 0 0 .819-.602l.618 1.02c-.293.263-.633.48-1.004.695-.325.17-.71.325-1.143.48-.448.14-.943.217-1.5.217-.742 0-1.42-.124-2.055-.387-.633-.247-1.174-.602-1.638-1.066a4.97 4.97 0 0 1-1.081-1.637 5.84 5.84 0 0 1-.386-2.101zM.015 35.838h4.713c.54 0 1.05.077 1.498.247.464.155.85.386 1.2.695a3.14 3.14 0 0 1 .772 1.097c.186.433.28.912.28 1.453 0 .7-.155 1.328-.48 1.838-.31.5-.742.896-1.283 1.16v.03a2.74 2.74 0 0 1 .958.463 2.89 2.89 0 0 1 .726.773 3.5 3.5 0 0 1 .464 1.004 4.26 4.26 0 0 1 .17 1.19c0 .618-.108 1.158-.325 1.637a3.7 3.7 0 0 1-.88 1.221 3.96 3.96 0 0 1-1.314.757 5.09 5.09 0 0 1-1.622.263H.015V35.838zM198.44 48.074H200v1.576h-1.56v-1.576z" fill-rule="evenodd" fill="#f1f1f1"/></g></svg>